<?xml version="1.0" encoding="iso-8859-1"?>
<!-- Generator: Adobe Illustrator 16.0.0, SVG Export Plug-In . SVG Version: 6.00 Build 0)  -->
<!DOCTYPE svg PUBLIC "-//W3C//DTD SVG 1.1//EN" "http://www.w3.org/Graphics/SVG/1.1/DTD/svg11.dtd">
<svg xmlns="http://www.w3.org/2000/svg" xmlns:xlink="http://www.w3.org/1999/xlink" version="1.1" id="Capa_1" x="0px" y="0px" width="16px" height="16px" viewBox="0 0 453.053 453.053" style="enable-background:new 0 0 453.053 453.053;" xml:space="preserve">
<g>
	<path d="M284.368,13.423c38.313-24,93.844-15.5,132.313,22.953c38.438,38.453,46.938,94,22.969,132.328   c-37.844-6.734-73.656-24.625-102.188-53.125C308.962,87.064,291.087,51.268,284.368,13.423z M314.837,138.206   c-27.938-27.953-46.781-62.031-56.906-98.359c-23.969,38.328-15.469,93.844,22.97,132.297c38.469,38.453,93.969,46.953,132.313,23   C376.868,184.986,342.806,166.158,314.837,138.206z M258.274,194.768c-14.97-14.969-26-32.125-33.642-50.109L9.383,398.408   c-12.516,12.531-12.5,32.781,0,45.281c12.484,12.469,32.75,12.5,45.25,0l253.767-215.25   C290.399,220.798,273.243,209.736,258.274,194.768z" fill="#000000"/>
</g>
<g>
</g>
<g>
</g>
<g>
</g>
<g>
</g>
<g>
</g>
<g>
</g>
<g>
</g>
<g>
</g>
<g>
</g>
<g>
</g>
<g>
</g>
<g>
</g>
<g>
</g>
<g>
</g>
<g>
</g>
</svg>
